<?xml version="1.0" encoding="iso-8859-1"?>
<!-- Uploaded to: SVG Repo, www.svgrepo.com, Generator: SVG Repo Mixer Tools -->
<!DOCTYPE svg PUBLIC "-//W3C//DTD SVG 1.1//EN" "http://www.w3.org/Graphics/SVG/1.1/DTD/svg11.dtd">
<svg fill="#000000" version="1.1" id="Capa_1" xmlns="http://www.w3.org/2000/svg" xmlns:xlink="http://www.w3.org/1999/xlink" 
	 width="800px" height="800px" viewBox="0 0 160.979 160.979"
	 xml:space="preserve">
<g>
	<path d="M160.979,58.223l-33.155-7.547L119.707,97.1c-7.807-5.347-16.788-9.657-26.555-12.136
		c13.523-9.098,22.834-27.03,22.834-43.178c0-22.789-18.475-41.272-41.26-41.272c-22.792,0-41.272,18.478-41.272,41.272
		c0,16.148,9.311,34.081,22.834,43.178C23.958,93.166,0,121.23,0,142.025c0,24.588,149.44,24.588,149.44,0
		c0-6.321-2.234-13.312-6.224-20.216L160.979,58.223z M132.841,58.208l20.375,4.64l-16.033,57.403l-14.607-3.325L132.841,58.208z
		 M74.727,160.457l-20.935-20.935l17.622-42.6h-0.18l-6.848-7.849c3.319,1.193,6.766,1.899,10.346,1.899
		c3.571,0,7.015-0.706,10.321-1.894l-6.845,7.837h-0.173l17.625,42.6L74.727,160.457z M137.171,139.242
		c-1.517,6.662-7.131,10.644-14.054,9.067c-6.911-1.571-10.389-7.618-8.872-14.285c1.547-6.79,7.393-10.571,14.176-9.037
		C135.216,126.534,138.59,132.423,137.171,139.242z"/>
</g>
</svg>