<svg xmlns="http://www.w3.org/2000/svg" xmlns:xlink="http://www.w3.org/1999/xlink" width="1080" zoomAndPan="magnify" viewBox="0 0 810 809.999993" height="1080" preserveAspectRatio="xMidYMid meet" version="1.0"><defs><g/><clipPath id="69961e5593"><path d="M 351.707031 345.660156 L 458.292969 345.660156 L 458.292969 452.25 L 351.707031 452.25 Z M 351.707031 345.660156 " clip-rule="nonzero"/></clipPath><clipPath id="ae0b6cf937"><path d="M 405 345.660156 C 375.566406 345.660156 351.707031 369.523438 351.707031 398.957031 C 351.707031 428.390625 375.566406 452.25 405 452.25 C 434.433594 452.25 458.292969 428.390625 458.292969 398.957031 C 458.292969 369.523438 434.433594 345.660156 405 345.660156 Z M 405 345.660156 " clip-rule="nonzero"/></clipPath><clipPath id="029601084a"><path d="M 351.707031 345.660156 L 458.207031 345.660156 L 458.207031 452.160156 L 351.707031 452.160156 Z M 351.707031 345.660156 " clip-rule="nonzero"/></clipPath><clipPath id="b76629d380"><path d="M 404.996094 345.660156 C 375.5625 345.660156 351.707031 369.519531 351.707031 398.953125 C 351.707031 428.382812 375.5625 452.242188 404.996094 452.242188 C 434.429688 452.242188 458.289062 428.382812 458.289062 398.953125 C 458.289062 369.519531 434.429688 345.660156 404.996094 345.660156 Z M 404.996094 345.660156 " clip-rule="nonzero"/></clipPath><clipPath id="745768ea68"><path d="M 351.707031 339.277344 L 458.292969 339.277344 L 458.292969 445.867188 L 351.707031 445.867188 Z M 351.707031 339.277344 " clip-rule="nonzero"/></clipPath><clipPath id="b3f441c49d"><path d="M 405 339.277344 C 375.566406 339.277344 351.707031 363.136719 351.707031 392.570312 C 351.707031 422.003906 375.566406 445.867188 405 445.867188 C 434.433594 445.867188 458.292969 422.003906 458.292969 392.570312 C 458.292969 363.136719 434.433594 339.277344 405 339.277344 Z M 405 339.277344 " clip-rule="nonzero"/></clipPath><clipPath id="e6db10182e"><path d="M 351.707031 339.277344 L 458.207031 339.277344 L 458.207031 445.777344 L 351.707031 445.777344 Z M 351.707031 339.277344 " clip-rule="nonzero"/></clipPath><clipPath id="bec9822f50"><path d="M 404.996094 339.277344 C 375.5625 339.277344 351.707031 363.136719 351.707031 392.566406 C 351.707031 422 375.5625 445.859375 404.996094 445.859375 C 434.429688 445.859375 458.289062 422 458.289062 392.566406 C 458.289062 363.136719 434.429688 339.277344 404.996094 339.277344 Z M 404.996094 339.277344 " clip-rule="nonzero"/></clipPath></defs><g clip-path="url(#69961e5593)"><g clip-path="url(#ae0b6cf937)"><path fill="#000000" d="M 351.707031 345.660156 L 458.292969 345.660156 L 458.292969 452.25 L 351.707031 452.25 Z M 351.707031 345.660156 " fill-opacity="1" fill-rule="nonzero"/></g></g><g clip-path="url(#029601084a)"><g clip-path="url(#b76629d380)"><path stroke-linecap="butt" transform="matrix(0.75, 0, 0, 0.75, 351.705132, 345.66132)" fill="none" stroke-linejoin="miter" d="M 71.054619 -0.00155195 C 31.809825 -0.00155195 0.00253206 31.81095 0.00253206 71.055743 C 0.00253206 110.295329 31.809825 142.10783 71.054619 142.10783 C 110.299413 142.10783 142.111914 110.295329 142.111914 71.055743 C 142.111914 31.81095 110.299413 -0.00155195 71.054619 -0.00155195 Z M 71.054619 -0.00155195 " stroke="#000000" stroke-width="10" stroke-opacity="1" stroke-miterlimit="4"/></g></g><g clip-path="url(#745768ea68)"><g clip-path="url(#b3f441c49d)"><path fill="#ffd425" d="M 351.707031 339.277344 L 458.292969 339.277344 L 458.292969 445.867188 L 351.707031 445.867188 Z M 351.707031 339.277344 " fill-opacity="1" fill-rule="nonzero"/></g></g><g clip-path="url(#e6db10182e)"><g clip-path="url(#bec9822f50)"><path stroke-linecap="butt" transform="matrix(0.75, 0, 0, 0.75, 351.705132, 339.275715)" fill="none" stroke-linejoin="miter" d="M 71.054619 0.00217176 C 31.809825 0.00217176 0.00253206 31.814673 0.00253206 71.054259 C 0.00253206 110.299052 31.809825 142.111554 71.054619 142.111554 C 110.299413 142.111554 142.111914 110.299052 142.111914 71.054259 C 142.111914 31.814673 110.299413 0.00217176 71.054619 0.00217176 Z M 71.054619 0.00217176 " stroke="#000000" stroke-width="10" stroke-opacity="1" stroke-miterlimit="4"/></g></g><g fill="#000000" fill-opacity="1"><g transform="translate(385.014343, 421.371949)"><g><path d="M 16.890625 -14.734375 C 12.972656 -14.734375 11.015625 -15.207031 11.015625 -16.15625 L 11.015625 -18.984375 C 11.015625 -21.210938 12.875 -24.0625 16.59375 -27.53125 C 17.988281 -28.820312 19.265625 -30.285156 20.421875 -31.921875 C 21.585938 -33.566406 22.171875 -35.054688 22.171875 -36.390625 C 22.171875 -38.867188 20.742188 -40.109375 17.890625 -40.109375 C 15.046875 -40.109375 12.179688 -39.164062 9.296875 -37.28125 C 7.410156 -39.164062 6.097656 -41.300781 5.359375 -43.6875 C 5.054688 -44.476562 4.90625 -45.179688 4.90625 -45.796875 C 4.90625 -46.421875 5.03125 -47.007812 5.28125 -47.5625 C 5.675781 -48.84375 7.523438 -50.050781 10.828125 -51.1875 C 14.128906 -52.332031 17.613281 -52.90625 21.28125 -52.90625 C 26.84375 -52.90625 31.007812 -51.710938 33.78125 -49.328125 C 36.5625 -46.953125 37.953125 -43.707031 37.953125 -39.59375 C 37.953125 -37.707031 37.492188 -35.859375 36.578125 -34.046875 C 35.660156 -32.234375 34.539062 -30.644531 33.21875 -29.28125 C 31.90625 -27.914062 30.609375 -26.640625 29.328125 -25.453125 C 26.203125 -22.472656 24.640625 -20.21875 24.640625 -18.6875 L 24.640625 -16.453125 C 24.640625 -15.847656 23.71875 -15.410156 21.875 -15.140625 C 20.039062 -14.867188 18.378906 -14.734375 16.890625 -14.734375 Z M 24.1875 0.296875 C 24.1875 0.597656 22.140625 0.75 18.046875 0.75 C 13.953125 0.75 11.90625 0.625 11.90625 0.375 L 11.90625 -11.3125 C 11.90625 -11.707031 13.953125 -11.90625 18.046875 -11.90625 C 22.140625 -11.90625 24.1875 -11.78125 24.1875 -11.53125 Z M 24.1875 0.296875 "/></g></g></g></svg>